<?xml version="1.0" encoding="utf-8"?>
<svg viewBox="12.116 123.975 474.954 247.011" width="474.954" height="247.011" xmlns="http://www.w3.org/2000/svg">
  <path d="M 175.028 123.975 C 148.225 123.975 122.516 133.92 103.571 151.625 L 41.717 209.405 C 22.763 227.102 12.116 251.118 12.116 276.155 C 12.116 328.289 57.359 370.554 113.171 370.554 C 139.982 370.554 165.684 360.608 184.635 342.904 L 227.415 302.941 C 227.415 302.941 227.415 302.941 227.415 302.941 L 352.069 186.499 C 361.122 178.041 373.398 173.29 386.199 173.29 C 407.626 173.29 425.795 186.343 432.094 204.393 L 471.434 167.644 C 453.493 141.391 422.021 123.975 386.199 123.975 C 359.399 123.975 333.689 133.92 314.744 151.625 L 147.303 308.037 C 138.248 316.486 125.975 321.237 113.171 321.237 C 86.519 321.237 64.91 301.051 64.91 276.155 C 64.91 264.195 69.996 252.73 79.05 244.272 L 140.896 186.499 C 149.952 178.041 162.225 173.29 175.028 173.29 C 196.461 173.29 214.622 186.343 220.923 204.393 L 260.261 167.644 C 242.32 141.391 210.847 123.975 175.028 123.975 Z" class="ccustom" fill="rgb(36, 149, 255)" style=""/>
  <path d="M 147.117 308.469 C 138.064 316.918 125.789 321.669 112.988 321.669 C 91.562 321.669 73.391 308.625 67.093 290.576 L 27.753 327.324 C 45.702 353.577 77.167 370.986 112.988 370.986 C 139.798 370.986 165.498 361.04 184.452 343.336 L 351.884 186.931 C 360.939 178.473 373.213 173.721 386.015 173.721 C 412.667 173.721 434.278 193.908 434.278 218.805 C 434.278 230.764 429.192 242.231 420.148 250.688 L 358.291 308.469 C 349.236 316.918 336.963 321.669 324.159 321.669 C 302.735 321.669 284.565 308.625 278.265 290.568 L 238.926 327.316 C 256.875 353.577 288.34 370.986 324.159 370.986 C 350.97 370.986 376.672 361.04 395.625 343.336 L 457.471 285.562 C 476.424 267.857 487.07 243.849 487.07 218.805 C 487.07 166.669 441.828 124.406 386.015 124.406 C 359.214 124.406 333.504 134.352 314.561 152.056 L 147.117 308.469 Z" class="ccustom" fill="rgb(36, 149, 255)" style=""/>
</svg>